# xmcd
#
# Track frame offsets: 
#        150
#        15147
#        29249
#        52713
#        70374
#        90641
#        107191
#        121916
#        135018
#        149642
#        168892
#        182294
#        207284
#        221734
#        240952
#        255054
#        271664
#        284198
#        302786
#        316108
#        328629
#
# Disc length: 4546 seconds
#
# Revision: 0
# Processed by: cddbd v1.5.2PL0 Copyright (c) Steve Scherf et al.
# Submitted via: ExactAudioCopy v0.99pb5
#
DISCID=1c11c015
DTITLE=Various Artist - danse country
DYEAR=2009
DGENRE=Country
TTITLE0=01 - Hicktory lake - Bekka and billy
TTITLE1=02 - Stupidville - Cash on delivery
TTITLE2=03 - Good time - Alan Jackson
TTITLE3=04 - Go with me - Josh turner
TTITLE4=05 - Toes - Zac brown band
TTITLE5=06 - Here comes the rain - Genious and love
TTITLE6=07 - Mr oh lala - Rissi palmer
TTITLE7=08 - Wild stallion - Mariotti brothers
TTITLE8=09 - Cabo san lucas - Toby Keith
TTITLE9=10 - Hay que - Marie Dazzler
TTITLE10=11 - Zjozzy funk
TTITLE11=12 - Addicted to love - Kimber Clayton
TTITLE12=13 - Rub it in - Jeff bates
TTITLE13=14 - Island in the stream - Dolly parton and Kenny rogers
TTITLE14=15 - Galway girl - Shannon and friends
TTITLE15=16 - Kill the spider - Brad paisley
TTITLE16=17 - Love tricks - Trick pony
TTITLE17=18 - The world - Brad paisley
TTITLE18=19 - Laid back cha - Alan jackson
TTITLE19=20 - Butter beans - Neal mc Coy
TTITLE20=21 - Sally ann - Robert Mizzel
EXTD=
EXTT0=
EXTT1=
EXTT2=
EXTT3=
EXTT4=
EXTT5=
EXTT6=
EXTT7=
EXTT8=
EXTT9=
EXTT10=
EXTT11=
EXTT12=
EXTT13=
EXTT14=
EXTT15=
EXTT16=
EXTT17=
EXTT18=
EXTT19=
EXTT20=
PLAYORDER=
